<?xml version="1.0" encoding="UTF-8"?>
<svg id="Layer_1" data-name="Layer 1" xmlns="http://www.w3.org/2000/svg" viewBox="0 0 241.2 138.84">
  <defs>
    <style>
      .cls-1 {
        fill: #fff;
        stroke-width: 0px;
      }
    </style>
  </defs>
  <path class="cls-1" d="m18.66,51.36h-10.2c-2.76,0-3.84.18-4.86.18-1.2,0-1.74-.72-1.74-1.5,0-2.22,2.4-1.08,2.4-5.28V15.3c0-4.14-2.4-3-2.4-5.22,0-.84.78-1.56,1.92-1.56,1.08,0,1.98.18,4.68.18s3.72-.18,4.8-.18c1.14,0,1.74.72,1.74,1.56,0,2.22-2.46,1.08-2.46,5.22v29.52c0,1.44.36,2.52,1.98,2.52h1.32c2.82,0,4.92-2.64,8.22-7.74.66-1.02,1.26-1.62,2.1-1.62.96,0,1.44.66,1.44,1.56,0,1.02-.36,2.22-1.26,4.8l-1.98,5.64c-.54,1.68-1.14,2.76-2.34,2.76s-1.44-1.38-3.36-1.38Z"/>
  <path class="cls-1" d="m52.5,44.76c0,.42-.12,1.02-.42,1.8-1.44,3.3-5.16,6-9.9,6-7.26,0-12.9-5.82-12.9-16.44,0-9.36,5.34-15.96,12.18-15.96,6.18,0,10.56,5.58,10.56,12.6,0,1.62-.6,2.22-1.98,2.64l-12.48,3.42c1.2,5.28,3.78,8.46,6.96,8.46,1.8,0,3.66-.96,5.22-3,.66-.84.96-.96,1.5-.96.66,0,1.26.48,1.26,1.44Zm-15.66-13.08c0,1.2.06,2.34.18,3.42l5.52-1.68c1.08-.3,2.04-.78,2.04-2.16,0-3.54-1.74-7.02-4.14-7.02-2.58,0-3.6,3.42-3.6,7.44Z"/>
  <path class="cls-1" d="m73.38,46.26c0,.84-.3,1.62-1.02,2.58-1.68,2.22-4.44,3.24-7.38,3.24-3.66,0-7.2-2.1-7.2-5.88,0-2.04.12-4.98.12-10.26v-10.56h-1.74c-1.14,0-1.86-.72-1.86-1.68,0-.84.48-1.38,1.5-2.1,2.76-1.8,4.8-4.14,6.3-9.3.48-1.5,1.02-2.1,1.98-2.1s1.38.66,1.38,2.1v9.06h5.88c.78,0,1.26.42,1.26,1.08s-.06,1.26-.12,1.62c-.18,1.02-.66,1.32-1.38,1.32h-5.64v17.04c0,3.18.78,4.8,2.46,4.8,1.02,0,1.86-.72,2.58-1.5.42-.42.9-.9,1.62-.9s1.26.6,1.26,1.44Z"/>
  <path class="cls-1" d="m84,12.96c0,5.58-4.02,11.1-6.72,11.1-.78,0-1.32-.6-1.32-1.32,0-.6.36-1.2,1.2-1.92.96-.84,1.68-2.04,1.68-3.06,0-.96-.36-1.32-1.74-2.1-1.14-.66-2.1-1.56-2.1-3.36,0-2.4,2.1-4.32,4.68-4.32,2.76,0,4.32,1.74,4.32,4.98Z"/>
  <path class="cls-1" d="m86.88,50.04l-1.38-3.96c-.78-2.22-1.2-3.42-1.2-4.08,0-.9.66-1.56,1.44-1.56.84,0,1.26.48,1.92,1.38,2.52,3.6,5.1,6.6,8.76,6.6,2.34,0,3.78-1.32,3.78-3.12,0-2.58-1.74-3.9-6.3-5.82-4.56-1.92-8.94-4.68-8.94-10.2,0-4.92,3.6-8.58,8.82-8.58,2.4,0,3.84.96,4.68.96.9,0,.9-1.2,2.28-1.2.9,0,1.38.78,2.1,2.22l1.68,3.42c.54,1.02,1.14,2.58,1.14,3.3,0,.78-.54,1.32-1.44,1.32-.72,0-1.26-.48-1.98-1.2-2.58-2.88-5.22-5.16-7.62-5.16-1.68,0-2.88,1.14-2.88,2.7,0,2.22,1.5,3.24,6,5.28,4.8,2.04,9.24,4.74,9.24,10.26,0,6-4.2,9.48-10.14,9.48-2.94,0-4.56-1.2-5.46-1.2-1.14,0-1.14,1.56-2.52,1.56-1.08,0-1.56-1.08-1.98-2.4Z"/>
  <path class="cls-1" d="m160.44,22.56c0,1.8-2.34,1.38-3.36,5.34l-5.52,20.7c-.6,2.46-1.2,3.18-4.26,3.18s-3.72-.78-4.32-3.24l-3.54-13.62-4.14,13.74c-.66,2.28-1.08,3.12-4.38,3.12s-3.78-.96-4.32-3.12l-5.52-20.76c-1.02-4.08-3.24-3.54-3.24-5.34,0-.9.6-1.44,1.56-1.44,1.14,0,2.64.18,5.1.18,2.28,0,3.18-.18,4.44-.18s1.98.54,1.98,1.5c0,1.62-1.86,1.5-1.86,4.14,0,.66.3,2.04.6,3.3l3.42,13.68,4.68-15.24-.18-.6c-1.02-4.02-2.94-3.72-2.94-5.34,0-.9.72-1.44,1.5-1.44,1.08,0,2.16.18,4.74.18,2.1,0,3.12-.18,4.44-.18s1.92.6,1.92,1.5c0,1.68-2.28,1.38-2.28,3.9,0,.66.36,2.16.66,3.54l3.42,13.68,3.42-13.68c.36-1.32.6-2.58.6-3.42,0-2.52-2.22-2.34-2.22-4.02,0-.9.66-1.5,1.92-1.5.96,0,1.74.18,3,.18,1.02,0,2.28-.18,3.06-.18,1.02,0,1.62.6,1.62,1.44Z"/>
  <path class="cls-1" d="m161.16,36.72c0-9.12,5.04-16.56,13.32-16.56,7.68,0,12.6,6.36,12.6,15.96,0,8.94-5.16,16.44-13.26,16.44-7.68,0-12.66-6.24-12.66-15.84Zm17.76,1.74c0-8.58-2.22-14.28-5.34-14.28-2.82,0-4.32,3.36-4.32,10.2,0,8.52,2.22,14.16,5.4,14.16,2.88,0,4.26-3.24,4.26-10.08Z"/>
  <path class="cls-1" d="m211.92,23.76c0,1.38-.72,3.42-1.74,6.24-.42,1.14-.84,1.74-1.74,1.74-.84,0-1.32-.66-1.8-1.74-.84-1.86-1.56-2.34-2.34-2.34-1.98,0-4.14,3.48-4.14,11.16v5.76c0,4.62,2.76,3.3,2.76,5.46,0,.72-.54,1.5-1.62,1.5-1.14,0-2.28-.18-4.92-.18-2.4,0-3.36.18-4.38.18-1.14,0-1.62-.78-1.62-1.5,0-1.98,2.22-.84,2.22-5.46v-13.74c0-3.72-2.52-2.22-2.52-4.5,0-1.14,1.14-1.8,4.5-3.6,3.12-1.68,3.48-1.86,4.14-1.86,1.32,0,1.44,1.56,1.44,2.58v4.98c1.26-4.5,4.14-7.8,7.74-7.8,2.04,0,4.02,1.2,4.02,3.12Z"/>
  <path class="cls-1" d="m241.2,50.16c0,.9-.54,1.38-1.5,1.38-1.08,0-2.46-.18-4.5-.18-2.22,0-3.42.18-4.68.18s-1.62-.54-1.62-1.44c0-1.44,1.5-1.26,1.5-3.18,0-.6-.3-1.5-.78-2.7l-3.3-7.44-3,3.36v4.44c0,4.62,2.22,3.42,2.22,5.46,0,.66-.42,1.5-1.44,1.5s-2.1-.18-4.56-.18-3.42.18-4.44.18c-1.2,0-1.68-.78-1.68-1.5,0-2.04,2.4-.84,2.4-5.46V15.54c0-3.78-2.7-2.22-2.7-4.5,0-1.14,1.02-1.74,4.5-3.6,3.24-1.74,3.66-1.86,4.2-1.86.96,0,1.5.66,1.5,2.34v26.28l5.58-6.12c1.02-1.08,1.62-1.92,1.62-2.58,0-1.56-2.16-1.08-2.16-2.88,0-.96.6-1.44,1.86-1.44.9,0,2.94.18,4.08.18,1.08,0,3.78-.18,4.56-.18,1.02,0,1.5.54,1.5,1.32,0,1.98-2.46,1.44-4.98,4.2l-3.6,4.02,5.94,14.04c1.8,4.26,3.48,3.78,3.48,5.4Z"/>
  <path class="cls-1" d="m19.62,118.26c0,.84-.3,1.62-1.02,2.58-1.68,2.22-4.44,3.24-7.38,3.24-3.66,0-7.2-2.1-7.2-5.88,0-2.04.12-4.98.12-10.26v-10.56h-1.74c-1.14,0-1.86-.72-1.86-1.68,0-.84.48-1.38,1.5-2.1,2.76-1.8,4.8-4.14,6.3-9.3.48-1.5,1.02-2.1,1.98-2.1s1.38.66,1.38,2.1v9.06h5.88c.78,0,1.26.42,1.26,1.08s-.06,1.26-.12,1.62c-.18,1.02-.66,1.32-1.38,1.32h-5.64v17.04c0,3.18.78,4.8,2.46,4.8,1.02,0,1.86-.72,2.58-1.5.42-.42.9-.9,1.62-.9s1.26.6,1.26,1.44Z"/>
  <path class="cls-1" d="m20.94,108.72c0-9.12,5.04-16.56,13.32-16.56,7.68,0,12.6,6.36,12.6,15.96,0,8.94-5.16,16.44-13.26,16.44-7.68,0-12.66-6.24-12.66-15.84Zm17.76,1.74c0-8.58-2.22-14.28-5.34-14.28-2.82,0-4.32,3.36-4.32,10.2,0,8.52,2.22,14.16,5.4,14.16,2.88,0,4.26-3.24,4.26-10.08Z"/>
  <path class="cls-1" d="m75.9,124.44c0,6.6-6.72,10.44-14.82,10.44-7.56,0-11.58-3.12-11.58-7.14,0-2.28,1.56-4.44,4.26-5.82-1.86-.9-3.3-2.52-3.3-5.1,0-2.22,1.74-4.44,3.84-5.94-2.64-1.68-4.14-4.38-4.14-7.92,0-5.76,4.2-10.74,12.24-10.74.54,0,1.08,0,1.56.06.96-5.34,3.96-8.22,5.88-8.22,1.2,0,2.34.72,3.96,2.1.72.54,1.14,1.26,1.14,2.1,0,.78-.6,1.38-1.86,1.38-2.1,0-4.98.42-6.06,3.24,4.08,1.38,6.36,4.74,6.36,9.06,0,5.64-4.08,10.62-12.24,10.62-1.38,0-2.7-.18-3.84-.48-.72.72-1.2,1.44-1.2,2.1,0,.96.9,1.32,2.88,1.5,3.3.42,5.4.66,7.74.9,6.36.84,9.18,3.48,9.18,7.86Zm-7.08,2.64c0-1.98-1.44-2.82-4.62-3.3-1.8-.24-3.6-.54-6.54-.9-1.38,1.02-2.52,2.46-2.52,4.08,0,2.76,2.4,4.26,6.6,4.26s7.08-1.74,7.08-4.14Zm-11.4-25.02c0,4.38,2.04,7.02,4.5,7.02s4.08-2.52,4.08-6.42c0-4.38-1.98-7.02-4.44-7.02s-4.14,2.58-4.14,6.42Z"/>
  <path class="cls-1" d="m100.08,116.76c0,.42-.12,1.02-.42,1.8-1.44,3.3-5.16,6-9.9,6-7.26,0-12.9-5.82-12.9-16.44,0-9.36,5.34-15.96,12.18-15.96,6.18,0,10.56,5.58,10.56,12.6,0,1.62-.6,2.22-1.98,2.64l-12.48,3.42c1.2,5.28,3.78,8.46,6.96,8.46,1.8,0,3.66-.96,5.22-3,.66-.84.96-.96,1.5-.96.66,0,1.26.48,1.26,1.44Zm-15.66-13.08c0,1.2.06,2.34.18,3.42l5.52-1.68c1.08-.3,2.04-.78,2.04-2.16,0-3.54-1.74-7.02-4.14-7.02-2.58,0-3.6,3.42-3.6,7.44Z"/>
  <path class="cls-1" d="m120.96,118.26c0,.84-.3,1.62-1.02,2.58-1.68,2.22-4.44,3.24-7.38,3.24-3.66,0-7.2-2.1-7.2-5.88,0-2.04.12-4.98.12-10.26v-10.56h-1.74c-1.14,0-1.86-.72-1.86-1.68,0-.84.48-1.38,1.5-2.1,2.76-1.8,4.8-4.14,6.3-9.3.48-1.5,1.02-2.1,1.98-2.1s1.38.66,1.38,2.1v9.06h5.88c.78,0,1.26.42,1.26,1.08s-.06,1.26-.12,1.62c-.18,1.02-.66,1.32-1.38,1.32h-5.64v17.04c0,3.18.78,4.8,2.46,4.8,1.02,0,1.86-.72,2.58-1.5.42-.42.9-.9,1.62-.9s1.26.6,1.26,1.44Z"/>
  <path class="cls-1" d="m150.42,122.1c0,.84-.66,1.38-1.74,1.38-1.02,0-1.98-.18-4.44-.18s-3.48.18-4.5.18c-1.26,0-1.8-.66-1.8-1.5,0-1.8,2.22-1.08,2.22-4.5,0-.54-.12-1.5-.18-2.34l-.78-9.12c-.36-4.2-.9-6.96-3.18-6.96-2.16,0-3.54,2.22-3.54,7.32v10.2c0,4.62,2.4,3.48,2.4,5.46,0,.66-.48,1.5-1.62,1.5-1.02,0-2.1-.18-4.56-.18s-3.42.18-4.44.18c-1.2,0-1.68-.78-1.68-1.5,0-1.98,2.4-.84,2.4-5.46v-29.04c0-3.78-2.7-2.28-2.7-4.5,0-1.14,1.02-1.8,4.62-3.66,3.24-1.68,3.6-1.8,4.08-1.8,1.26,0,1.5,1.14,1.5,2.58v17.88c1.44-3.3,3.84-5.34,7.14-5.34,5.7,0,6.72,6.72,7.02,10.32l1.08,12.9c.42,5.46,2.7,4.02,2.7,6.18Z"/>
  <path class="cls-1" d="m175.5,116.76c0,.42-.12,1.02-.42,1.8-1.44,3.3-5.16,6-9.9,6-7.26,0-12.9-5.82-12.9-16.44,0-9.36,5.34-15.96,12.18-15.96,6.18,0,10.56,5.58,10.56,12.6,0,1.62-.6,2.22-1.98,2.64l-12.48,3.42c1.2,5.28,3.78,8.46,6.96,8.46,1.8,0,3.66-.96,5.22-3,.66-.84.96-.96,1.5-.96.66,0,1.26.48,1.26,1.44Zm-15.66-13.08c0,1.2.06,2.34.18,3.42l5.52-1.68c1.08-.3,2.04-.78,2.04-2.16,0-3.54-1.74-7.02-4.14-7.02-2.58,0-3.6,3.42-3.6,7.44Z"/>
  <path class="cls-1" d="m200.1,95.76c0,1.38-.72,3.42-1.74,6.24-.42,1.14-.84,1.74-1.74,1.74-.84,0-1.32-.66-1.8-1.74-.84-1.86-1.56-2.34-2.34-2.34-1.98,0-4.14,3.48-4.14,11.16v5.76c0,4.62,2.76,3.3,2.76,5.46,0,.72-.54,1.5-1.62,1.5-1.14,0-2.28-.18-4.92-.18-2.4,0-3.36.18-4.38.18-1.14,0-1.62-.78-1.62-1.5,0-1.98,2.22-.84,2.22-5.46v-13.74c0-3.72-2.52-2.22-2.52-4.5,0-1.14,1.14-1.8,4.5-3.6,3.12-1.68,3.48-1.86,4.14-1.86,1.32,0,1.44,1.56,1.44,2.58v4.98c1.26-4.5,4.14-7.8,7.74-7.8,2.04,0,4.02,1.2,4.02,3.12Z"/>
  <path class="cls-1" d="m205.38,109.62c-.78-6.9-2.64-19.02-2.64-24.3,0-3.66,1.14-5.88,4.38-5.88s4.38,2.22,4.38,5.88c0,5.28-1.86,17.4-2.64,24.24-.3,1.2-.78,1.62-1.8,1.62-.96,0-1.38-.48-1.68-1.56Zm-2.58,10.44c0,2.4,1.5,3.84,3.9,3.84,2.7,0,4.62-1.92,4.62-4.26s-1.62-3.78-3.96-3.78c-2.7,0-4.56,1.86-4.56,4.2Z"/>
</svg>