<?xml version="1.0" encoding="UTF-8"?>
<svg id="Layer_1" data-name="Layer 1" xmlns="http://www.w3.org/2000/svg" viewBox="0 0 14 13">
  <defs>
    <style>
      .cls-1 {
        fill: #fff;
        stroke-width: 0px;
      }
    </style>
  </defs>
  <path class="cls-1" d="m5,4h2.77v1.42h.04c.39-.69,1.33-1.42,2.73-1.42,2.92,0,3.46,1.82,3.46,4.18v4.82h-2.89v-4.27c0-1.02-.02-2.33-1.5-2.33s-1.73,1.11-1.73,2.25v4.34h-2.88V4ZM0,4h3v9H0V4ZM3,1.5c0,.4-.16.78-.44,1.06-.28.28-.66.44-1.06.44-.4,0-.78-.16-1.06-.44C.16,2.28,0,1.9,0,1.5c0-.4.16-.78.44-1.06.14-.14.3-.25.49-.33C1.11.04,1.3,0,1.5,0c.2,0,.39.04.57.11.18.08.35.19.49.33.14.14.25.3.33.49.08.18.11.38.11.57Z"/>
</svg>