<?xml version="1.0" encoding="UTF-8"?>
<svg id="Layer_1" data-name="Layer 1" xmlns="http://www.w3.org/2000/svg" viewBox="0 0 133.47 40.16">
  <defs>
    <style>
      .cls-1 {
        fill: #231f20;
        stroke-width: 0px;
      }
    </style>
  </defs>
  <path class="cls-1" d="m19.83,21.13c0,6.76-3.61,11.55-8.28,11.55-3.36,0-4.41-1.55-5.42-1.55-.92,0-2.06,1.3-2.94,1.3-.76,0-1.05-.55-1.05-1.34V6.97c0-2.65-2.14-1.55-2.14-3.19,0-.76.84-1.22,3.28-2.52C5.54.08,5.96,0,6.3,0c.92,0,1.09.84,1.09,1.51v12.35c1.13-2.1,2.98-3.49,5.54-3.49,3.99,0,6.89,4.16,6.89,10.75Zm-5.54,1.72c0-5.08-1.51-8.65-3.74-8.65-1.76,0-3.15,2.35-3.15,6.34v2.4c0,4.16,1.39,6.97,3.57,6.97,2.02,0,3.32-2.44,3.32-7.06Z"/>
  <path class="cls-1" d="m21.97,21.8c0-6.38,3.53-11.59,9.33-11.59,5.38,0,8.82,4.45,8.82,11.17,0,6.26-3.61,11.51-9.28,11.51-5.38,0-8.86-4.37-8.86-11.09Zm12.43,1.22c0-6.01-1.55-10-3.74-10-1.97,0-3.02,2.35-3.02,7.14,0,5.97,1.55,9.91,3.78,9.91,2.02,0,2.98-2.27,2.98-7.06Z"/>
  <path class="cls-1" d="m61.03,21.13c0,6.76-3.61,11.55-8.28,11.55-3.36,0-4.41-1.55-5.42-1.55-.92,0-2.06,1.3-2.94,1.3-.76,0-1.05-.55-1.05-1.34V6.97c0-2.65-2.14-1.55-2.14-3.19,0-.76.84-1.22,3.28-2.52,2.27-1.18,2.69-1.26,3.02-1.26.92,0,1.09.84,1.09,1.51v12.35c1.13-2.1,2.98-3.49,5.54-3.49,3.99,0,6.89,4.16,6.89,10.75Zm-5.54,1.72c0-5.08-1.51-8.65-3.74-8.65-1.76,0-3.15,2.35-3.15,6.34v2.4c0,4.16,1.39,6.97,3.57,6.97,2.02,0,3.32-2.44,3.32-7.06Z"/>
  <path class="cls-1" d="m63.17,21.8c0-6.38,3.53-11.59,9.33-11.59,5.38,0,8.82,4.45,8.82,11.17,0,6.26-3.61,11.51-9.28,11.51-5.38,0-8.86-4.37-8.86-11.09Zm12.43,1.22c0-6.01-1.55-10-3.74-10-1.97,0-3.02,2.35-3.02,7.14,0,5.97,1.55,9.91,3.78,9.91,2.02,0,2.98-2.27,2.98-7.06Z"/>
  <path class="cls-1" d="m100.76,11.89c0,1.26-1.51.88-2.39,4.03l-4.96,16.89c-1.43,5.08-3.61,7.35-6.68,7.35-1.3,0-2.39-.42-2.73-1.01-.63-.92-1.3-3.78-1.3-5.17,0-.84.34-1.39.97-1.39.5,0,.76.25,1.05.76,1.22,2.1,1.81,2.98,2.94,2.98s1.76-.92,2.6-3.57l-5.92-16.68c-1.18-3.23-2.56-2.94-2.56-4.2,0-.63.5-.97,1.05-.97.76,0,1.85.13,3.61.13,1.64,0,2.6-.13,3.44-.13.88,0,1.3.38,1.3,1.01,0,1.3-1.34,1.05-1.43,2.9,0,.67.21,1.51.55,2.52l2.56,7.77,2.06-7.77c.34-1.18.46-1.76.46-2.6,0-1.64-1.39-1.51-1.39-2.81,0-.63.38-1.01,1.26-1.01.63,0,1.39.13,2.23.13.71,0,1.68-.13,2.23-.13.63,0,1.05.38,1.05.97Z"/>
  <path class="cls-1" d="m117.44,27.43c0,.29-.08.71-.29,1.26-1.01,2.31-3.61,4.2-6.93,4.2-5.08,0-9.03-4.08-9.03-11.51,0-6.55,3.74-11.17,8.53-11.17,4.33,0,7.39,3.91,7.39,8.82,0,1.13-.42,1.55-1.39,1.85l-8.74,2.39c.84,3.7,2.65,5.92,4.87,5.92,1.26,0,2.56-.67,3.65-2.1.46-.59.67-.67,1.05-.67.46,0,.88.34.88,1.01Zm-10.96-9.16c0,.84.04,1.64.13,2.39l3.86-1.18c.76-.21,1.43-.55,1.43-1.51,0-2.48-1.22-4.92-2.9-4.92-1.81,0-2.52,2.39-2.52,5.21Z"/>
  <g id="_Radial_Repeat_" data-name="&amp;lt;Radial Repeat&amp;gt;">
    <path class="cls-1" d="m133.43,28.69l-.27.66c-.12.3-.47.45-.77.33l-3.58-1.46,1.51,3.56c.12.3-.02.65-.32.77l-.65.28c-.3.13-.65-.01-.77-.31l-1.51-3.57-1.45,3.59c-.12.3-.47.45-.77.32l-.66-.27c-.3-.12-.45-.46-.32-.76l1.44-3.57-3.55,1.49c-.3.13-.64-.01-.77-.31l-.28-.66c-.12-.3.02-.64.32-.77l3.55-1.5-3.58-1.45c-.3-.13-.44-.47-.32-.77l.27-.66c.12-.3.46-.45.76-.33l3.59,1.46-1.51-3.56c-.13-.3.01-.65.31-.77l.66-.28c.3-.13.65.01.77.31l1.51,3.55,1.45-3.57c.12-.3.46-.45.76-.32l.67.26c.3.13.44.47.32.77l-1.46,3.58,3.57-1.5c.3-.13.64,0,.77.31l.27.66c.13.3,0,.64-.31.77l-3.56,1.5,3.58,1.45c.3.13.45.47.33.77Z"/>
  </g>
</svg>